<?xml version="1.0" encoding="UTF-8"?>
<svg id="_레이어_1_사본" data-name="레이어_1_사본" xmlns="http://www.w3.org/2000/svg" version="1.1" viewBox="0 0 2000 2000">
  <!-- Generator: Adobe Illustrator 29.1.0, SVG Export Plug-In . SVG Version: 2.1.0 Build 142)  -->
  <defs>
    <style>
      .st0 {
        fill: #f5ded7;
      }

      .st1 {
        fill: #8f4c35;
      }

      .st2 {
        fill: #53433f;
      }
    </style>
  </defs>
  <path class="st2" d="M1590.4,837.8v402.8c0,22.6-15.2,42.4-37.1,48.3l-782.5,209.7-126.6-472.4,883.2-236.7c31.8-8.5,62.9,15.4,62.9,48.3Z"/>
  <g>
    <rect class="st0" x="705.8" y="1210.5" width="80" height="80" transform="translate(-298.3 235.7) rotate(-15)"/>
    <path class="st0" d="M873.9,1257.6l-20.7-77.3,158.3-42.4,20.7,77.3-158.3,42.4ZM1111.4,1194l-20.7-77.3,158.3-42.4,20.7,77.3-158.3,42.4ZM1348.9,1130.3l-20.7-77.3,158.3-42.4,20.7,77.3-158.3,42.4Z"/>
    <polygon class="st0" points="1590.4 982.8 1590.4 1065.6 1586.4 1066.7 1565.7 989.4 1590.4 982.8"/>
  </g>
  <path class="st1" d="M759.6,500h0c-193.5,0-350,156.5-350,350,0,87,25,168.5,70.5,242,47.5,77,110,143,158,220,23.5,37.5,40.5,72.5,58.5,113,13,27.5,23.5,75,63,75h0c39.5,0,50-47.5,62.5-75,18.5-40.5,35-75.5,58.5-113,48-76.5,110.5-142.5,158-220,46-73.5,71-155,71-242,0-193.5-156.5-350-350-350ZM759.6,987.5c-69,0-125-56-125-125,0-69,56-125,125-125s125,56,125,125c0,69-56,125-125,125Z"/>
</svg>